<?xml version="1.0" encoding="UTF-8" standalone="no"?>
<!-- Created with Inkscape (http://www.inkscape.org/) -->

<svg
   width="210mm"
   height="297mm"
   viewBox="0 0 210 297"
   version="1.1"
   id="svg5"
   xml:space="preserve"
   inkscape:version="1.2.1 (9c6d41e410, 2022-07-14)"
   sodipodi:docname="LogoVector.svg"
   xmlns:inkscape="http://www.inkscape.org/namespaces/inkscape"
   xmlns:sodipodi="http://sodipodi.sourceforge.net/DTD/sodipodi-0.dtd"
   xmlns="http://www.w3.org/2000/svg"
   xmlns:svg="http://www.w3.org/2000/svg"><sodipodi:namedview
     id="namedview7"
     pagecolor="#505050"
     bordercolor="#eeeeee"
     borderopacity="1"
     inkscape:showpageshadow="0"
     inkscape:pageopacity="0"
     inkscape:pagecheckerboard="0"
     inkscape:deskcolor="#505050"
     inkscape:document-units="mm"
     showgrid="false"
     inkscape:zoom="0.39063903"
     inkscape:cx="99.836414"
     inkscape:cy="1057.242"
     inkscape:window-width="1920"
     inkscape:window-height="1027"
     inkscape:window-x="-8"
     inkscape:window-y="-8"
     inkscape:window-maximized="1"
     inkscape:current-layer="svg5"
     showborder="false" /><defs
     id="defs2" /><g
     inkscape:label="Layer 1"
     inkscape:groupmode="layer"
     id="layer1" /><path
     style="fill:#2e2e45;stroke-width:0.20093;fill-opacity:1"
     d="m 47.8927,249.38198 c 0.652387,-2.45734 -0.976935,-5.90476 -3.718148,-7.86709 -1.064438,-0.76199 -1.018895,-0.79861 -0.901323,0.72472 0.158594,2.05484 -0.03878,2.60606 -0.633099,1.76823 -0.639167,-0.90101 -1.482999,-1.52576 -3.481789,-2.57782 -3.402317,-1.7908 -4.504917,-5.85541 -2.999608,-11.05772 0.0967,-0.33419 3.95e-4,-0.29638 -0.522281,0.20491 -0.640864,0.61475 -0.640864,0.61475 -0.518857,-0.52269 0.267386,-2.49267 1.328999,-4.63807 3.476554,-7.0257 1.222268,-1.35892 1.223821,-1.3622 0.493593,-1.04488 -1.067106,0.46371 -1.04079,0.35056 0.461999,-1.98678 2.064973,-3.21173 5.8157,-6.87357 6.352011,-6.2015 0.276638,0.34667 0.327015,2.74896 0.07548,3.59906 -0.07778,0.26286 -0.08045,0.41829 -0.006,0.34542 0.281324,-0.27517 0.697019,-2.37297 0.699269,-3.52881 0.0051,-2.61144 -1.599983,-3.32103 -4.697675,-2.07681 -2.905052,1.16684 -6.147475,1.35727 -8.017982,0.47089 -0.541632,-0.25667 -0.541632,-0.25667 -0.07176,-0.37202 0.356593,-0.0876 -0.0094,-0.27336 -1.517872,-0.77071 -2.714284,-0.89488 -3.549617,-1.27223 -3.247003,-1.46674 0.157356,-0.1011 -0.281459,-0.41775 -1.224698,-0.88362 -3.878271,-1.91551 -6.005693,-4.00502 -6.915582,-6.79232 -0.375701,-1.1509 -0.348552,-1.22978 0.330804,-0.96116 1.346215,0.53233 3.77841,0.86381 7.730325,1.05356 6.589905,0.31641 8.166895,0.74108 14.500424,3.90482 2.724286,1.36084 3.636561,1.71213 5.466742,2.10513 1.208226,0.25944 2.352253,0.61017 2.542284,0.77939 3.069627,2.7335 3.650528,3.13051 2.567949,1.7551 -1.063422,-1.35109 -2.659216,-2.59458 -5.193638,-4.04703 -5.518303,-3.16249 -7.510798,-8.1971 -6.404367,-16.1825 0.4844,-3.49608 0.526302,-6.42575 0.115367,-8.0666 -0.522239,-2.08526 -0.217595,-1.96413 0.926094,0.36822 0.883044,1.8008 1.145667,3.73189 1.005438,7.39304 -0.124685,3.2552 0.0039,4.13421 0.769497,5.26949 0.377422,0.5595 0.377202,0.56853 -0.02735,1.10342 -0.22433,0.29661 -0.407882,0.67901 -0.407882,0.84978 0,0.17076 0.264633,-0.0695 0.588071,-0.53383 0.455982,-0.65466 1.009162,-1.05735 2.462821,-1.79282 1.587896,-0.80339 1.874747,-1.02317 1.874747,-1.43634 0,-1.25132 0.902242,-2.59841 2.021837,-3.01865 0.322646,-0.12112 0.326119,-0.0881 0.04926,0.46876 -0.306998,0.61743 -0.413246,2.57017 -0.149081,2.73997 0.979165,0.62938 4.109294,-1.71629 4.470395,-3.35005 0.249103,-1.12701 0.249103,-1.12701 0.473709,-0.30735 0.89049,3.24961 -0.868438,4.9047 -6.536659,6.15074 -2.164403,0.47581 -3.86908,1.42773 -4.213875,2.35313 -0.267218,0.71719 -0.267218,0.71719 0.129502,0.20491 0.396724,-0.51228 0.396724,-0.51228 0.401102,0.0378 0.01061,1.33003 0.801158,2.41958 2.886273,3.97786 1.504656,1.12448 1.366685,1.18543 1.552752,-0.68591 0.212907,-2.14121 0.216194,-2.72658 0.01872,-3.32984 -0.167715,-0.51228 -0.167715,-0.51228 0.376084,0 0.971466,0.91517 1.329241,2.07858 1.249957,4.06459 -0.07009,1.7559 -0.07009,1.7559 1.176111,2.66247 0.685411,0.49862 1.572028,1.36448 1.970253,1.92413 0.500396,0.70324 1.080153,1.20574 1.876886,1.62679 1.452844,0.76778 1.637463,0.63876 0.332346,-0.23225 -1.563967,-1.04377 -0.933446,-1.0461 1.273176,-0.004 3.47062,1.63795 6.994412,7.12733 6.994412,10.89596 0,1.17867 -0.110827,1.20965 -0.982271,0.27455 -0.900952,-0.96676 -0.928687,-0.80287 -0.104915,0.6199 1.549262,2.6758 2.621307,7.54711 2.09411,9.51551 -0.127124,0.47464 -0.182776,0.4274 -0.857463,-0.72771 -1.14216,-1.95547 -1.579097,-2.26829 -1.222602,-0.87533 0.510523,1.99482 0.394061,3.10502 -0.40197,3.83193 -2.66202,2.43084 -7.931021,0.1526 -6.800337,-2.94038 0.241304,-0.66009 0.591443,-0.48951 0.591443,0.28815 0,1.50605 1.810326,2.89801 3.735978,2.87259 1.465573,-0.0193 2.264702,-0.361 0.891208,-0.38102 -1.750262,-0.0255 -3.248014,-1.12596 -3.248014,-2.38639 0,-0.43976 -0.12418,-0.76121 -0.344794,-0.89255 -0.742324,-0.44192 -0.846243,-0.57121 -0.724441,-0.90133 0.169856,-0.46036 0.344733,-0.43252 1.025469,0.16321 0.519123,0.4543 0.615329,0.47519 0.950991,0.20647 0.358035,-0.28664 0.345222,-0.32359 -0.310557,-0.89582 -0.683999,-0.59684 -0.683999,-0.59684 0.295538,-0.90938 0.979536,-0.31255 0.979536,-0.31255 0.129225,-0.32682 -0.467671,-0.007 -1.012547,0.076 -1.210833,0.18641 -0.280367,0.15605 -0.770287,-0.0222 -2.203582,-0.802 -1.623362,-0.88315 -3.868486,-1.7661 -4.039217,-1.58854 -0.03321,0.0345 0.846323,0.54095 1.954507,1.12535 2.706356,1.42722 3.333052,1.94411 2.75036,2.26844 -0.358843,0.19973 -0.576437,0.13933 -1.402643,-0.38939 -1.14308,-0.7315 -2.981649,-1.53018 -3.962944,-1.7215 -0.51362,-0.10014 -0.237097,0.1172 1.083641,0.85171 2.580223,1.43497 3.271564,1.9462 3.122918,2.30929 -0.06921,0.16905 -0.224913,0.68635 -0.346,1.14954 -0.480098,1.8365 -6.313915,-1.92389 -8.281609,-5.33819 -0.89622,-1.55511 -0.910717,-1.0136 -0.02225,0.83129 1.035807,2.15086 2.191482,3.20945 5.649241,5.17464 4.304522,2.44643 7.066313,4.73532 5.922383,4.90831 -0.418772,0.0634 -0.408902,0.0988 0.250255,0.89971 2.192756,2.66429 1.492003,6.54959 -1.760891,9.76321 -1.788401,1.76682 -1.873036,1.77967 -1.87852,0.28521 -0.0048,-1.23037 -0.467444,-2.59904 -1.048093,-3.09877 -0.29566,-0.25448 -0.327172,-0.19597 -0.331088,0.61473 -0.01191,2.46733 -1.913825,4.52951 -5.292518,5.73849 -1.773639,0.63464 -2.202992,0.55085 -1.955423,-0.38165 z m 13.114926,-40.02806 c -0.65037,-0.53915 -1.279719,-0.84844 -2.068767,-1.01669 -1.651022,-0.35204 -1.626606,-0.33711 -1.626606,-0.99453 0,-0.3325 -0.376813,-1.35938 -0.83736,-2.28197 -1.343023,-2.69039 -1.096012,-6.88142 0.633056,-10.74121 1.161187,-2.5921 1.263343,-4.1178 0.482941,-7.21258 -0.645502,-2.55982 -0.612399,-5.18603 0.08294,-6.57963 0.524063,-1.05033 0.916002,-1.16405 0.706215,-0.20491 -0.358095,1.6372 -0.163662,3.08862 0.672471,5.01989 2.035341,4.70115 2.164501,5.8069 0.839293,7.18516 -0.551846,0.57393 -1.001621,1.16317 -0.999502,1.30942 0.0019,0.14624 0.314288,-0.11911 0.693696,-0.58966 0.781273,-0.96897 1.777503,-1.43626 3.538495,-1.6598 1.182158,-0.15007 1.182158,-0.15007 1.29146,-0.96894 0.227646,-1.70543 1.368386,-2.98185 1.368386,-1.53114 0,2.0393 0.58083,2.60154 2.034827,1.9697 1.142908,-0.49665 1.947755,-2.41301 1.562187,-3.71959 -0.304251,-1.03102 0.03426,-0.87721 0.570792,0.25935 1.400643,2.9671 -0.137747,4.81662 -4.561858,5.48447 -4.059719,0.61285 -7.092919,2.97401 -7.092919,5.52142 0,1.34508 1.423185,0.54775 1.713075,-0.95974 0.1371,-0.71292 0.405535,-0.72876 0.657748,-0.0388 0.238515,0.65246 -0.279101,1.98276 -1.06339,2.73299 -0.852923,0.81587 -0.714056,1.60079 0.843796,4.76946 1.209563,2.46025 1.784726,4.23862 1.563526,4.83434 -0.03838,0.10335 -0.490406,-0.16078 -1.004505,-0.58697 z m -16.600545,-3.13003 c -2.716999,-1.16944 -3.094806,-1.42977 -2.265794,-1.56123 0.594369,-0.0942 0.450481,-0.15742 -1.042028,-0.45749 -2.206884,-0.44371 -5.070537,-2.20101 -3.981461,-2.44327 0.324724,-0.0723 0.490964,-0.14225 0.369409,-0.15559 -0.853761,-0.0937 -3.233758,-2.11421 -3.695628,-3.13749 -0.901142,-1.9965 -0.819161,-2.94503 0.157536,-1.82259 0.670161,0.77017 3.493898,2.07675 4.941251,2.28637 2.183654,0.31628 2.947586,0.9212 4.12912,3.26959 0.711584,1.41433 1.339665,2.31676 2.313761,3.32446 1.540267,1.59339 1.400447,1.69864 -0.926166,0.69724 z"
     id="path268"
     inkscape:export-filename="LogoWholeDark.png"
     inkscape:export-xdpi="96"
     inkscape:export-ydpi="96" /><path
     style="fill:#2e2e45;fill-opacity:1;stroke-width:0.20093"
     d="m 46.322966,138.08991 c 0.652387,-2.45734 -0.976935,-5.90476 -3.718148,-7.86709 -1.064438,-0.76199 -1.018895,-0.79861 -0.901323,0.72472 0.158594,2.05484 -0.03878,2.60606 -0.633099,1.76823 -0.639167,-0.90101 -1.482999,-1.52576 -3.481789,-2.57782 -3.402317,-1.7908 -4.504917,-5.85541 -2.999608,-11.05772 0.0967,-0.33419 3.95e-4,-0.29638 -0.522281,0.20491 -0.640864,0.61475 -0.640864,0.61475 -0.518857,-0.52269 0.267386,-2.49267 1.328999,-4.63807 3.476554,-7.0257 1.222268,-1.35892 1.223821,-1.3622 0.493593,-1.04488 -1.067106,0.46371 -1.04079,0.35056 0.461999,-1.98678 2.064973,-3.21173 5.8157,-6.87357 6.352011,-6.2015 0.276638,0.34667 0.327015,2.74896 0.07548,3.59906 -0.07778,0.26286 -0.08045,0.41829 -0.006,0.34542 0.281324,-0.27517 0.697019,-2.37297 0.699269,-3.52881 0.0051,-2.61144 -1.599983,-3.321027 -4.697675,-2.07681 -2.905052,1.16684 -6.147475,1.35727 -8.017982,0.47089 -0.541632,-0.25667 -0.541632,-0.25667 -0.07176,-0.37202 0.356593,-0.0876 -0.0094,-0.27336 -1.517872,-0.77071 -2.714284,-0.894877 -3.549617,-1.272227 -3.247003,-1.466737 0.157356,-0.1011 -0.281459,-0.41775 -1.224698,-0.88362 -3.878271,-1.91551 -6.005693,-4.00502 -6.915582,-6.79232 -0.375701,-1.1509 -0.348552,-1.22978 0.330804,-0.96116 1.346215,0.53233 3.77841,0.86381 7.730325,1.05356 6.589905,0.31641 8.166895,0.74108 14.500424,3.90482 2.724286,1.36084 3.636561,1.71213 5.466742,2.10513 1.208226,0.25944 2.352253,0.61017 2.542284,0.77939 3.069627,2.733497 3.650528,3.130507 2.567949,1.7551 -1.063422,-1.35109 -2.659216,-2.59458 -5.193638,-4.04703 -5.518303,-3.16249 -7.510798,-8.1971 -6.404367,-16.1825 0.4844,-3.49608 0.526302,-6.42575 0.115367,-8.0666 -0.522239,-2.08526 -0.217595,-1.96413 0.926094,0.36822 0.883044,1.8008 1.145667,3.73189 1.005438,7.39304 -0.124685,3.2552 0.0039,4.13421 0.769497,5.26949 0.377422,0.5595 0.377202,0.56853 -0.02735,1.10342 -0.22433,0.29661 -0.407882,0.67901 -0.407882,0.84978 0,0.17076 0.264633,-0.0695 0.588071,-0.53383 0.455982,-0.65466 1.009162,-1.05735 2.462821,-1.79282 1.587896,-0.80339 1.874747,-1.02317 1.874747,-1.43634 0,-1.25132 0.902242,-2.59841 2.021837,-3.01865 0.322646,-0.12112 0.326119,-0.0881 0.04926,0.46876 -0.306998,0.61743 -0.413246,2.57017 -0.149081,2.73997 0.979165,0.62938 4.109294,-1.71629 4.470395,-3.35005 0.249103,-1.12701 0.249103,-1.12701 0.473709,-0.30735 0.89049,3.24961 -0.868438,4.9047 -6.536659,6.15074 -2.164403,0.47581 -3.86908,1.42773 -4.213875,2.35313 -0.267218,0.71719 -0.267218,0.71719 0.129502,0.20491 0.396724,-0.51228 0.396724,-0.51228 0.401102,0.0378 0.01061,1.33003 0.801158,2.41958 2.886273,3.97786 1.504656,1.12448 1.366685,1.18543 1.552752,-0.68591 0.212907,-2.14121 0.216194,-2.72658 0.01872,-3.32984 -0.167715,-0.51228 -0.167715,-0.51228 0.376084,0 0.971466,0.91517 1.329241,2.07858 1.249957,4.06459 -0.07009,1.7559 -0.07009,1.7559 1.176111,2.66247 0.685411,0.49862 1.572028,1.36448 1.970253,1.92413 0.500396,0.70324 1.080153,1.20574 1.876886,1.62679 1.452844,0.76778 1.637463,0.63876 0.332346,-0.23225 -1.563967,-1.04377 -0.933446,-1.0461 1.273176,-0.004 3.47062,1.63795 6.994412,7.127327 6.994412,10.895957 0,1.17867 -0.110827,1.20965 -0.982271,0.27455 -0.900952,-0.96676 -0.928687,-0.80287 -0.104915,0.6199 1.549262,2.6758 2.621307,7.54711 2.09411,9.51551 -0.127124,0.47464 -0.182776,0.4274 -0.857463,-0.72771 -1.14216,-1.95547 -1.579097,-2.26829 -1.222602,-0.87533 0.510523,1.99482 0.394061,3.10502 -0.40197,3.83193 -2.66202,2.43084 -7.931021,0.1526 -6.800337,-2.94038 0.241304,-0.66009 0.591443,-0.48951 0.591443,0.28815 0,1.50605 1.810326,2.89801 3.735978,2.87259 1.465573,-0.0193 2.264702,-0.361 0.891208,-0.38102 -1.750262,-0.0255 -3.248014,-1.12596 -3.248014,-2.38639 0,-0.43976 -0.12418,-0.76121 -0.344794,-0.89255 -0.742324,-0.44192 -0.846243,-0.57121 -0.724441,-0.90133 0.169856,-0.46036 0.344733,-0.43252 1.025469,0.16321 0.519123,0.4543 0.615329,0.47519 0.950991,0.20647 0.358035,-0.28664 0.345222,-0.32359 -0.310557,-0.89582 -0.683999,-0.59684 -0.683999,-0.59684 0.295538,-0.90938 0.979536,-0.31255 0.979536,-0.31255 0.129225,-0.32682 -0.467671,-0.007 -1.012547,0.076 -1.210833,0.18641 -0.280367,0.15605 -0.770287,-0.0222 -2.203582,-0.802 -1.623362,-0.88315 -3.868486,-1.7661 -4.039217,-1.58854 -0.03321,0.0345 0.846323,0.54095 1.954507,1.12535 2.706356,1.42722 3.333052,1.94411 2.75036,2.26844 -0.358843,0.19973 -0.576437,0.13933 -1.402643,-0.38939 -1.14308,-0.7315 -2.981649,-1.53018 -3.962944,-1.7215 -0.51362,-0.10014 -0.237097,0.1172 1.083641,0.85171 2.580223,1.43497 3.271564,1.9462 3.122918,2.30929 -0.06921,0.16905 -0.224913,0.68635 -0.346,1.14954 -0.480098,1.8365 -6.313915,-1.92389 -8.281609,-5.33819 -0.89622,-1.55511 -0.910717,-1.0136 -0.02225,0.83129 1.035807,2.15086 2.191482,3.20945 5.649241,5.17464 4.304522,2.44643 7.066313,4.73532 5.922383,4.90831 -0.418772,0.0634 -0.408902,0.0988 0.250255,0.89971 2.192756,2.66429 1.492003,6.54959 -1.760891,9.76321 -1.788401,1.76682 -1.873036,1.77967 -1.87852,0.28521 -0.0048,-1.23037 -0.467444,-2.59904 -1.048093,-3.09877 -0.29566,-0.25448 -0.327172,-0.19597 -0.331088,0.61473 -0.01191,2.46733 -1.913825,4.52951 -5.292518,5.73849 -1.773639,0.63464 -2.202992,0.55085 -1.955423,-0.38165 z M 59.437892,98.061853 c -0.65037,-0.53915 -1.279719,-0.84844 -2.068767,-1.01669 -1.651022,-0.35204 -1.626606,-0.33711 -1.626606,-0.99453 0,-0.3325 -0.376813,-1.35938 -0.83736,-2.28197 -1.343023,-2.69039 -1.096012,-6.88142 0.633056,-10.74121 1.161187,-2.5921 1.263343,-4.1178 0.482941,-7.21258 -0.645502,-2.55982 -0.612399,-5.18603 0.08294,-6.57963 0.524063,-1.05033 0.916002,-1.16405 0.706215,-0.20491 -0.358095,1.6372 -0.163662,3.08862 0.672471,5.01989 2.035341,4.70115 2.164501,5.8069 0.839293,7.18516 -0.551846,0.57393 -1.001621,1.16317 -0.999502,1.30942 0.0019,0.14624 0.314288,-0.11911 0.693696,-0.58966 0.781273,-0.96897 1.777503,-1.43626 3.538495,-1.6598 1.182158,-0.15007 1.182158,-0.15007 1.29146,-0.96894 0.227646,-1.70543 1.368386,-2.98185 1.368386,-1.53114 0,2.0393 0.58083,2.60154 2.034827,1.9697 1.142908,-0.49665 1.947755,-2.41301 1.562187,-3.71959 -0.304251,-1.03102 0.03426,-0.87721 0.570792,0.25935 1.400643,2.9671 -0.137747,4.81662 -4.561858,5.48447 -4.059719,0.61285 -7.092919,2.97401 -7.092919,5.52142 0,1.34508 1.423185,0.54775 1.713075,-0.95974 0.1371,-0.71292 0.405535,-0.72876 0.657748,-0.0388 0.238515,0.65246 -0.279101,1.98276 -1.06339,2.73299 -0.852923,0.81587 -0.714056,1.60079 0.843796,4.76946 1.209563,2.46025 1.784726,4.23862 1.563526,4.83434 -0.03838,0.10335 -0.490406,-0.16078 -1.004505,-0.58697 z m -16.600545,-3.13003 c -2.716999,-1.16944 -3.094806,-1.42977 -2.265794,-1.56123 0.594369,-0.0942 0.450481,-0.15742 -1.042028,-0.45749 -2.206884,-0.44371 -5.070537,-2.20101 -3.981461,-2.44327 0.324724,-0.0723 0.490964,-0.14225 0.369409,-0.15559 -0.853761,-0.0937 -3.233758,-2.11421 -3.695628,-3.13749 -0.901142,-1.9965 -0.819161,-2.94503 0.157536,-1.82259 0.670161,0.77017 3.493898,2.07675 4.941251,2.28637 2.183654,0.31628 2.947586,0.9212 4.12912,3.26959 0.711584,1.41433 1.339665,2.31676 2.313761,3.32446 1.540267,1.59339 1.400447,1.69864 -0.926166,0.69724 z"
     id="path268-5"
     inkscape:export-filename="LogoCharDark.png"
     inkscape:export-xdpi="96"
     inkscape:export-ydpi="96" /><rect
     style="fill:#2e2e45;stroke-width:0.265;stroke:#000000;stroke-opacity:1;stroke-dasharray:none;paint-order:markers stroke fill;fill-opacity:1"
     id="rect855"
     width="173.05244"
     height="1.3546181"
     x="-40.977192"
     y="290.56558" /><text
     xml:space="preserve"
     style="font-style:normal;font-variant:normal;font-weight:normal;font-stretch:normal;font-size:50.8px;font-family:Algerian;-inkscape-font-specification:'Algerian, Normal';font-variant-ligatures:normal;font-variant-caps:normal;font-variant-numeric:normal;font-variant-east-asian:normal;fill:#2e2e45;stroke-width:0.264583;paint-order:stroke fill markers;fill-opacity:1"
     x="-39.283909"
     y="288.87231"
     id="text751"><tspan
       sodipodi:role="line"
       id="tspan749"
       style="font-style:normal;font-variant:normal;font-weight:normal;font-stretch:normal;font-size:50.8px;font-family:Algerian;-inkscape-font-specification:'Algerian, Normal';font-variant-ligatures:normal;font-variant-caps:normal;font-variant-numeric:normal;font-variant-east-asian:normal;fill:#2e2e45;stroke-width:0.264583;paint-order:stroke fill markers;fill-opacity:1"
       x="-39.283909"
       y="288.87231">MYSTIC</tspan></text><text
     xml:space="preserve"
     style="font-style:normal;font-variant:normal;font-weight:normal;font-stretch:normal;font-size:50.8px;font-family:Algerian;-inkscape-font-specification:'Algerian, Normal';font-variant-ligatures:normal;font-variant-caps:normal;font-variant-numeric:normal;font-variant-east-asian:normal;fill:#2e2e45;fill-opacity:1;stroke-width:0.264583;paint-order:stroke fill markers"
     x="-41.427059"
     y="405.59708"
     id="text751-2"
     inkscape:export-filename="LogoTextDark.png"
     inkscape:export-xdpi="96"
     inkscape:export-ydpi="96"><tspan
       sodipodi:role="line"
       id="tspan749-22"
       style="font-style:normal;font-variant:normal;font-weight:normal;font-stretch:normal;font-size:50.8px;font-family:Algerian;-inkscape-font-specification:'Algerian, Normal';font-variant-ligatures:normal;font-variant-caps:normal;font-variant-numeric:normal;font-variant-east-asian:normal;fill:#2e2e45;fill-opacity:1;stroke-width:0.264583;paint-order:stroke fill markers"
       x="-41.427059"
       y="405.59708">MYSTIC</tspan></text><path
     style="fill:#f1fdfd;fill-opacity:1;stroke-width:0.20093"
     d="m 259.25444,251.59646 c 0.65239,-2.45734 -0.97693,-5.90476 -3.71814,-7.86709 -1.06444,-0.76199 -1.0189,-0.79861 -0.90133,0.72472 0.1586,2.05484 -0.0388,2.60606 -0.6331,1.76823 -0.63916,-0.90101 -1.483,-1.52576 -3.48179,-2.57782 -3.40231,-1.7908 -4.50491,-5.85541 -2.9996,-11.05772 0.0967,-0.33419 3.9e-4,-0.29638 -0.52228,0.20491 -0.64087,0.61475 -0.64087,0.61475 -0.51886,-0.52269 0.26738,-2.49267 1.329,-4.63807 3.47655,-7.0257 1.22227,-1.35892 1.22382,-1.3622 0.4936,-1.04488 -1.06711,0.46371 -1.04079,0.35056 0.46199,-1.98678 2.06498,-3.21173 5.8157,-6.87357 6.35202,-6.2015 0.27663,0.34667 0.32701,2.74896 0.0755,3.59906 -0.0778,0.26286 -0.0804,0.41829 -0.006,0.34542 0.28132,-0.27517 0.69701,-2.37297 0.69926,-3.52881 0.005,-2.61144 -1.59998,-3.32103 -4.69767,-2.07681 -2.90505,1.16684 -6.14748,1.35727 -8.01798,0.47089 -0.54163,-0.25667 -0.54163,-0.25667 -0.0718,-0.37202 0.35659,-0.0876 -0.009,-0.27336 -1.51787,-0.77071 -2.71429,-0.89488 -3.54962,-1.27223 -3.24701,-1.46674 0.15736,-0.1011 -0.28146,-0.41775 -1.2247,-0.88362 -3.87827,-1.91551 -6.00569,-4.00502 -6.91558,-6.79232 -0.3757,-1.1509 -0.34855,-1.22978 0.33081,-0.96116 1.34621,0.53233 3.77841,0.86381 7.73032,1.05356 6.58991,0.31641 8.1669,0.74108 14.50043,3.90482 2.72428,1.36084 3.63656,1.71213 5.46674,2.10513 1.20822,0.25944 2.35225,0.61017 2.54228,0.77939 3.06963,2.7335 3.65053,3.13051 2.56795,1.7551 -1.06342,-1.35109 -2.65922,-2.59458 -5.19364,-4.04703 -5.5183,-3.16249 -7.5108,-8.1971 -6.40436,-16.1825 0.4844,-3.49608 0.5263,-6.42575 0.11536,-8.0666 -0.52224,-2.08526 -0.21759,-1.96413 0.9261,0.36822 0.88304,1.8008 1.14566,3.73189 1.00543,7.39304 -0.12468,3.2552 0.004,4.13421 0.7695,5.26949 0.37742,0.5595 0.3772,0.56853 -0.0274,1.10342 -0.22433,0.29661 -0.40788,0.67901 -0.40788,0.84978 0,0.17076 0.26463,-0.0695 0.58807,-0.53383 0.45598,-0.65466 1.00916,-1.05735 2.46282,-1.79282 1.5879,-0.80339 1.87475,-1.02317 1.87475,-1.43634 0,-1.25132 0.90224,-2.59841 2.02184,-3.01865 0.32264,-0.12112 0.32611,-0.0881 0.0493,0.46876 -0.307,0.61743 -0.41325,2.57017 -0.14909,2.73997 0.97917,0.62938 4.1093,-1.71629 4.4704,-3.35005 0.2491,-1.12701 0.2491,-1.12701 0.47371,-0.30735 0.89049,3.24961 -0.86844,4.9047 -6.53666,6.15074 -2.1644,0.47581 -3.86908,1.42773 -4.21388,2.35313 -0.26721,0.71719 -0.26721,0.71719 0.12951,0.20491 0.39672,-0.51228 0.39672,-0.51228 0.4011,0.0378 0.0106,1.33003 0.80116,2.41958 2.88627,3.97786 1.50466,1.12448 1.36669,1.18543 1.55275,-0.68591 0.21291,-2.14121 0.2162,-2.72658 0.0187,-3.32984 -0.16771,-0.51228 -0.16771,-0.51228 0.37609,0 0.97146,0.91517 1.32924,2.07858 1.24995,4.06459 -0.0701,1.7559 -0.0701,1.7559 1.17612,2.66247 0.68541,0.49862 1.57202,1.36448 1.97025,1.92413 0.50039,0.70324 1.08015,1.20574 1.87688,1.62679 1.45285,0.76778 1.63747,0.63876 0.33235,-0.23225 -1.56397,-1.04377 -0.93345,-1.0461 1.27318,-0.004 3.47062,1.63795 6.99441,7.12733 6.99441,10.89596 0,1.17867 -0.11083,1.20965 -0.98227,0.27455 -0.90095,-0.96676 -0.92869,-0.80287 -0.10492,0.6199 1.54926,2.6758 2.62131,7.54711 2.09411,9.51551 -0.12712,0.47464 -0.18277,0.4274 -0.85746,-0.72771 -1.14216,-1.95547 -1.5791,-2.26829 -1.2226,-0.87533 0.51052,1.99482 0.39406,3.10502 -0.40197,3.83193 -2.66202,2.43084 -7.93102,0.1526 -6.80034,-2.94038 0.2413,-0.66009 0.59144,-0.48951 0.59144,0.28815 0,1.50605 1.81033,2.89801 3.73598,2.87259 1.46557,-0.0193 2.2647,-0.361 0.89121,-0.38102 -1.75026,-0.0255 -3.24801,-1.12596 -3.24801,-2.38639 0,-0.43976 -0.12418,-0.76121 -0.3448,-0.89255 -0.74232,-0.44192 -0.84624,-0.57121 -0.72444,-0.90133 0.16986,-0.46036 0.34473,-0.43252 1.02547,0.16321 0.51912,0.4543 0.61533,0.47519 0.95099,0.20647 0.35804,-0.28664 0.34522,-0.32359 -0.31056,-0.89582 -0.684,-0.59684 -0.684,-0.59684 0.29554,-0.90938 0.97954,-0.31255 0.97954,-0.31255 0.12923,-0.32682 -0.46767,-0.007 -1.01255,0.076 -1.21084,0.18641 -0.28036,0.15605 -0.77028,-0.0222 -2.20358,-0.802 -1.62336,-0.88315 -3.86848,-1.7661 -4.03922,-1.58854 -0.0332,0.0345 0.84633,0.54095 1.95451,1.12535 2.70636,1.42722 3.33305,1.94411 2.75036,2.26844 -0.35884,0.19973 -0.57644,0.13933 -1.40264,-0.38939 -1.14308,-0.7315 -2.98165,-1.53018 -3.96295,-1.7215 -0.51362,-0.10014 -0.23709,0.1172 1.08365,0.85171 2.58022,1.43497 3.27156,1.9462 3.12291,2.30929 -0.0692,0.16905 -0.22491,0.68635 -0.346,1.14954 -0.48009,1.8365 -6.31391,-1.92389 -8.28161,-5.33819 -0.89622,-1.55511 -0.91071,-1.0136 -0.0222,0.83129 1.03581,2.15086 2.19149,3.20945 5.64925,5.17464 4.30452,2.44643 7.06631,4.73532 5.92238,4.90831 -0.41877,0.0634 -0.4089,0.0988 0.25025,0.89971 2.19276,2.66429 1.49201,6.54959 -1.76089,9.76321 -1.7884,1.76682 -1.87303,1.77967 -1.87852,0.28521 -0.005,-1.23037 -0.46744,-2.59904 -1.04809,-3.09877 -0.29566,-0.25448 -0.32717,-0.19597 -0.33109,0.61473 -0.0119,2.46733 -1.91382,4.52951 -5.29252,5.73849 -1.77364,0.63464 -2.20299,0.55085 -1.95542,-0.38165 z m 13.11493,-40.02806 c -0.65037,-0.53915 -1.27972,-0.84844 -2.06877,-1.01669 -1.65102,-0.35204 -1.6266,-0.33711 -1.6266,-0.99453 0,-0.3325 -0.37682,-1.35938 -0.83736,-2.28197 -1.34303,-2.69039 -1.09602,-6.88142 0.63305,-10.74121 1.16119,-2.5921 1.26335,-4.1178 0.48294,-7.21258 -0.6455,-2.55982 -0.6124,-5.18603 0.0829,-6.57963 0.52407,-1.05033 0.91601,-1.16405 0.70622,-0.20491 -0.3581,1.6372 -0.16366,3.08862 0.67247,5.01989 2.03534,4.70115 2.1645,5.8069 0.83929,7.18516 -0.55184,0.57393 -1.00162,1.16317 -0.9995,1.30942 0.002,0.14624 0.31429,-0.11911 0.6937,-0.58966 0.78127,-0.96897 1.7775,-1.43626 3.53849,-1.6598 1.18216,-0.15007 1.18216,-0.15007 1.29146,-0.96894 0.22765,-1.70543 1.36839,-2.98185 1.36839,-1.53114 0,2.0393 0.58083,2.60154 2.03482,1.9697 1.14291,-0.49665 1.94776,-2.41301 1.56219,-3.71959 -0.30425,-1.03102 0.0343,-0.87721 0.57079,0.25935 1.40065,2.9671 -0.13774,4.81662 -4.56185,5.48447 -4.05972,0.61285 -7.09292,2.97401 -7.09292,5.52142 0,1.34508 1.42318,0.54775 1.71307,-0.95974 0.1371,-0.71292 0.40554,-0.72876 0.65775,-0.0388 0.23851,0.65246 -0.2791,1.98276 -1.06339,2.73299 -0.85292,0.81587 -0.71406,1.60079 0.8438,4.76946 1.20956,2.46025 1.78472,4.23862 1.56352,4.83434 -0.0384,0.10335 -0.4904,-0.16078 -1.0045,-0.58697 z m -16.60055,-3.13003 c -2.71699,-1.16944 -3.0948,-1.42977 -2.26579,-1.56123 0.59437,-0.0942 0.45048,-0.15742 -1.04203,-0.45749 -2.20688,-0.44371 -5.07053,-2.20101 -3.98146,-2.44327 0.32473,-0.0723 0.49097,-0.14225 0.36941,-0.15559 -0.85376,-0.0937 -3.23376,-2.11421 -3.69563,-3.13749 -0.90114,-1.9965 -0.81916,-2.94503 0.15754,-1.82259 0.67016,0.77017 3.4939,2.07675 4.94125,2.28637 2.18365,0.31628 2.94759,0.9212 4.12912,3.26959 0.71158,1.41433 1.33966,2.31676 2.31376,3.32446 1.54027,1.59339 1.40045,1.69864 -0.92617,0.69724 z"
     id="path268-4"
     inkscape:export-filename="LogoWholeLight.png"
     inkscape:export-xdpi="96"
     inkscape:export-ydpi="96" /><path
     style="fill:#f1fdfd;fill-opacity:1;stroke-width:0.20093"
     d="m 258.99802,126.57566 c 0.65239,-2.45734 -0.97693,-5.90476 -3.71814,-7.86709 -1.06444,-0.76199 -1.0189,-0.79861 -0.90133,0.72472 0.1586,2.05484 -0.0388,2.60606 -0.6331,1.76823 -0.63916,-0.90101 -1.483,-1.52576 -3.48179,-2.57782 -3.40231,-1.7908 -4.50491,-5.85541 -2.9996,-11.05772 0.0967,-0.33419 3.9e-4,-0.29638 -0.52228,0.20491 -0.64087,0.61475 -0.64087,0.61475 -0.51886,-0.52269 0.26738,-2.49267 1.329,-4.63807 3.47655,-7.0257 1.22227,-1.358922 1.22382,-1.362202 0.4936,-1.044882 -1.06711,0.46371 -1.04079,0.35056 0.46199,-1.98678 2.06498,-3.21173 5.8157,-6.87357 6.35202,-6.2015 0.27663,0.34667 0.32701,2.74896 0.0755,3.59906 -0.0778,0.26286 -0.0804,0.41829 -0.006,0.34542 0.28132,-0.27517 0.69701,-2.37297 0.69926,-3.52881 0.005,-2.61144 -1.59998,-3.32103 -4.69767,-2.07681 -2.90505,1.16684 -6.14748,1.35727 -8.01798,0.47089 -0.54163,-0.25667 -0.54163,-0.25667 -0.0718,-0.37202 0.35659,-0.0876 -0.009,-0.27336 -1.51787,-0.77071 -2.71429,-0.89488 -3.54962,-1.27223 -3.24701,-1.46674 0.15736,-0.1011 -0.28146,-0.41775 -1.2247,-0.88362 -3.87827,-1.91551 -6.00569,-4.00502 -6.91558,-6.79232 -0.3757,-1.1509 -0.34855,-1.22978 0.33081,-0.96116 1.34621,0.53233 3.77841,0.86381 7.73032,1.05356 6.58991,0.31641 8.1669,0.74108 14.50043,3.90482 2.72428,1.36084 3.63656,1.71213 5.46674,2.10513 1.20822,0.25944 2.35225,0.61017 2.54228,0.77939 3.06963,2.7335 3.65053,3.13051 2.56795,1.7551 -1.06342,-1.35109 -2.65922,-2.59458 -5.19364,-4.04703 -5.5183,-3.16249 -7.5108,-8.1971 -6.40436,-16.1825 0.4844,-3.49608 0.5263,-6.42575 0.11536,-8.0666 -0.52224,-2.08526 -0.21759,-1.96413 0.9261,0.36822 0.88304,1.8008 1.14566,3.73189 1.00543,7.39304 -0.12468,3.2552 0.004,4.13421 0.7695,5.26949 0.37742,0.5595 0.3772,0.56853 -0.0274,1.10342 -0.22433,0.29661 -0.40788,0.67901 -0.40788,0.84978 0,0.17076 0.26463,-0.0695 0.58807,-0.53383 0.45598,-0.65466 1.00916,-1.05735 2.46282,-1.79282 1.5879,-0.80339 1.87475,-1.02317 1.87475,-1.43634 0,-1.25132 0.90224,-2.59841 2.02184,-3.01865 0.32264,-0.12112 0.32611,-0.0881 0.0493,0.46876 -0.307,0.61743 -0.41325,2.57017 -0.14909,2.73997 0.97917,0.62938 4.1093,-1.71629 4.4704,-3.35005 0.2491,-1.12701 0.2491,-1.12701 0.47371,-0.30735 0.89049,3.24961 -0.86844,4.9047 -6.53666,6.15074 -2.1644,0.47581 -3.86908,1.42773 -4.21388,2.35313 -0.26721,0.71719 -0.26721,0.71719 0.12951,0.20491 0.39672,-0.51228 0.39672,-0.51228 0.4011,0.0378 0.0106,1.33003 0.80116,2.41958 2.88627,3.97786 1.50466,1.12448 1.36669,1.18543 1.55275,-0.68591 0.21291,-2.14121 0.2162,-2.72658 0.0187,-3.32984 -0.16771,-0.51228 -0.16771,-0.51228 0.37609,0 0.97146,0.91517 1.32924,2.07858 1.24995,4.06459 -0.0701,1.7559 -0.0701,1.7559 1.17612,2.66247 0.68541,0.49862 1.57202,1.36448 1.97025,1.92413 0.50039,0.70324 1.08015,1.20574 1.87688,1.62679 1.45285,0.76778 1.63747,0.63876 0.33235,-0.23225 -1.56397,-1.04377 -0.93345,-1.0461 1.27318,-0.004 3.47062,1.63795 6.99441,7.12733 6.99441,10.89596 0,1.17867 -0.11083,1.20965 -0.98227,0.27455 -0.90095,-0.96676 -0.92869,-0.80287 -0.10492,0.6199 1.54926,2.675802 2.62131,7.547112 2.09411,9.515512 -0.12712,0.47464 -0.18277,0.4274 -0.85746,-0.72771 -1.14216,-1.95547 -1.5791,-2.26829 -1.2226,-0.87533 0.51052,1.99482 0.39406,3.10502 -0.40197,3.83193 -2.66202,2.43084 -7.93102,0.1526 -6.80034,-2.94038 0.2413,-0.66009 0.59144,-0.48951 0.59144,0.28815 0,1.50605 1.81033,2.89801 3.73598,2.87259 1.46557,-0.0193 2.2647,-0.361 0.89121,-0.38102 -1.75026,-0.0255 -3.24801,-1.12596 -3.24801,-2.38639 0,-0.43976 -0.12418,-0.76121 -0.3448,-0.89255 -0.74232,-0.44192 -0.84624,-0.57121 -0.72444,-0.90133 0.16986,-0.46036 0.34473,-0.43252 1.02547,0.16321 0.51912,0.4543 0.61533,0.47519 0.95099,0.20647 0.35804,-0.28664 0.34522,-0.32359 -0.31056,-0.89582 -0.684,-0.59684 -0.684,-0.59684 0.29554,-0.90938 0.97954,-0.31255 0.97954,-0.31255 0.12923,-0.32682 -0.46767,-0.007 -1.01255,0.076 -1.21084,0.18641 -0.28036,0.15605 -0.77028,-0.0222 -2.20358,-0.802 -1.62336,-0.88315 -3.86848,-1.7661 -4.03922,-1.58854 -0.0332,0.0345 0.84633,0.54095 1.95451,1.12535 2.70636,1.42722 3.33305,1.94411 2.75036,2.26844 -0.35884,0.19973 -0.57644,0.13933 -1.40264,-0.38939 -1.14308,-0.7315 -2.98165,-1.53018 -3.96295,-1.7215 -0.51362,-0.10014 -0.23709,0.1172 1.08365,0.85171 2.58022,1.43497 3.27156,1.9462 3.12291,2.30929 -0.0692,0.16905 -0.22491,0.68635 -0.346,1.14954 -0.48009,1.8365 -6.31391,-1.92389 -8.28161,-5.33819 -0.89622,-1.55511 -0.91071,-1.0136 -0.0222,0.83129 1.03581,2.15086 2.19149,3.20945 5.64925,5.17464 4.30452,2.44643 7.06631,4.73532 5.92238,4.90831 -0.41877,0.0634 -0.4089,0.0988 0.25025,0.89971 2.19276,2.66429 1.49201,6.54959 -1.76089,9.76321 -1.7884,1.76682 -1.87303,1.77967 -1.87852,0.28521 -0.005,-1.23037 -0.46744,-2.59904 -1.04809,-3.09877 -0.29566,-0.25448 -0.32717,-0.19597 -0.33109,0.61473 -0.0119,2.46733 -1.91382,4.52951 -5.29252,5.73849 -1.77364,0.63464 -2.20299,0.55085 -1.95542,-0.38165 z m 13.11493,-40.028062 c -0.65037,-0.53915 -1.27972,-0.84844 -2.06877,-1.01669 -1.65102,-0.35204 -1.6266,-0.33711 -1.6266,-0.99453 0,-0.3325 -0.37682,-1.35938 -0.83736,-2.28197 -1.34303,-2.69039 -1.09602,-6.88142 0.63305,-10.74121 1.16119,-2.5921 1.26335,-4.1178 0.48294,-7.21258 -0.6455,-2.55982 -0.6124,-5.18603 0.0829,-6.57963 0.52407,-1.05033 0.91601,-1.16405 0.70622,-0.20491 -0.3581,1.6372 -0.16366,3.08862 0.67247,5.01989 2.03534,4.70115 2.1645,5.8069 0.83929,7.18516 -0.55184,0.57393 -1.00162,1.16317 -0.9995,1.30942 0.002,0.14624 0.31429,-0.11911 0.6937,-0.58966 0.78127,-0.96897 1.7775,-1.43626 3.53849,-1.6598 1.18216,-0.15007 1.18216,-0.15007 1.29146,-0.96894 0.22765,-1.70543 1.36839,-2.98185 1.36839,-1.53114 0,2.0393 0.58083,2.60154 2.03482,1.9697 1.14291,-0.49665 1.94776,-2.41301 1.56219,-3.71959 -0.30425,-1.03102 0.0343,-0.87721 0.57079,0.25935 1.40065,2.9671 -0.13774,4.81662 -4.56185,5.48447 -4.05972,0.61285 -7.09292,2.97401 -7.09292,5.52142 0,1.34508 1.42318,0.54775 1.71307,-0.95974 0.1371,-0.71292 0.40554,-0.72876 0.65775,-0.0388 0.23851,0.65246 -0.2791,1.98276 -1.06339,2.73299 -0.85292,0.81587 -0.71406,1.60079 0.8438,4.76946 1.20956,2.46025 1.78472,4.23862 1.56352,4.83434 -0.0384,0.10335 -0.4904,-0.16078 -1.0045,-0.58697 z m -16.60055,-3.13003 c -2.71699,-1.16944 -3.0948,-1.42977 -2.26579,-1.56123 0.59437,-0.0942 0.45048,-0.15742 -1.04203,-0.45749 -2.20688,-0.44371 -5.07053,-2.20101 -3.98146,-2.44327 0.32473,-0.0723 0.49097,-0.14225 0.36941,-0.15559 -0.85376,-0.0937 -3.23376,-2.11421 -3.69563,-3.13749 -0.90114,-1.9965 -0.81916,-2.94503 0.15754,-1.82259 0.67016,0.77017 3.4939,2.07675 4.94125,2.28637 2.18365,0.31628 2.94759,0.9212 4.12912,3.26959 0.71158,1.41433 1.33966,2.31676 2.31376,3.32446 1.54027,1.59339 1.40045,1.69864 -0.92617,0.69724 z"
     id="path268-4-6"
     inkscape:export-filename="LogoCharLight.png"
     inkscape:export-xdpi="96"
     inkscape:export-ydpi="96" /><rect
     style="fill:#f1fdfd;fill-opacity:1;stroke:#000000;stroke-width:0.265;stroke-dasharray:none;stroke-opacity:1;paint-order:markers stroke fill"
     id="rect855-1"
     width="173.05244"
     height="1.3546181"
     x="170.38455"
     y="292.78006" /><text
     xml:space="preserve"
     style="font-style:normal;font-variant:normal;font-weight:normal;font-stretch:normal;font-size:50.8px;font-family:Algerian;-inkscape-font-specification:'Algerian, Normal';font-variant-ligatures:normal;font-variant-caps:normal;font-variant-numeric:normal;font-variant-east-asian:normal;fill:#f1fdfd;fill-opacity:1;stroke-width:0.264583;paint-order:stroke fill markers"
     x="172.07784"
     y="291.08679"
     id="text751-8"><tspan
       sodipodi:role="line"
       id="tspan749-2"
       style="font-style:normal;font-variant:normal;font-weight:normal;font-stretch:normal;font-size:50.8px;font-family:Algerian;-inkscape-font-specification:'Algerian, Normal';font-variant-ligatures:normal;font-variant-caps:normal;font-variant-numeric:normal;font-variant-east-asian:normal;fill:#f1fdfd;fill-opacity:1;stroke-width:0.264583;paint-order:stroke fill markers"
       x="172.07784"
       y="291.08679">MYSTIC</tspan></text><text
     xml:space="preserve"
     style="font-style:normal;font-variant:normal;font-weight:normal;font-stretch:normal;font-size:50.8px;font-family:Algerian;-inkscape-font-specification:'Algerian, Normal';font-variant-ligatures:normal;font-variant-caps:normal;font-variant-numeric:normal;font-variant-east-asian:normal;fill:#f1fdfd;fill-opacity:1;stroke-width:0.264583;paint-order:stroke fill markers"
     x="173.95721"
     y="401.5332"
     id="text751-8-0"
     inkscape:export-filename="LogoTextLight.png"
     inkscape:export-xdpi="96"
     inkscape:export-ydpi="96"><tspan
       sodipodi:role="line"
       id="tspan749-2-8"
       style="font-style:normal;font-variant:normal;font-weight:normal;font-stretch:normal;font-size:50.8px;font-family:Algerian;-inkscape-font-specification:'Algerian, Normal';font-variant-ligatures:normal;font-variant-caps:normal;font-variant-numeric:normal;font-variant-east-asian:normal;fill:#f1fdfd;fill-opacity:1;stroke-width:0.264583;paint-order:stroke fill markers"
       x="173.95721"
       y="401.5332">MYSTIC</tspan></text></svg>
